<svg width="67" height="22" viewBox="0 0 67 22" fill="none" xmlns="http://www.w3.org/2000/svg">
<g clip-path="url(#clip0_225_336)">
<path fill-rule="evenodd" clip-rule="evenodd" d="M8.77119 0.000906338C1.50502 0.0449247 -0.0433276 1.60758 0.00091087 8.8376L0.0340897 13.2724C0.0783282 20.5025 1.64879 22.0431 8.91496 21.9991H58.1192C65.3854 21.9551 66.9337 20.3924 66.8895 13.1624L66.8563 8.72755C66.8121 1.49753 65.2416 -0.043112 57.9754 0.000906338H8.77119ZM33.4452 2.17982L57.5994 2.02575C63.4168 2.02575 64.6665 3.26927 64.6554 9.05769V9.37682V12.6232V12.9423C64.6554 18.7307 63.4168 19.9743 57.5883 19.9743L33.4341 19.8202L9.27993 19.9743C3.46257 19.9743 2.21283 18.7417 2.21283 12.9423V12.6232V9.38783V9.06869C2.21283 3.26927 3.46257 2.02575 9.27993 2.02575L33.4452 2.17982Z" fill="white"/>
<path d="M24.2105 10.1141H20.6714V11.8749H24.2105V10.1141Z" fill="white"/>
<path d="M18.9018 13.6356V6.59266H10.5518V8.35339H17.1322V10.1141H10.5518V15.3963H20.6713V13.6356H18.9018ZM12.3213 13.6356V11.8749H17.1322V13.6356H12.3213Z" fill="white"/>
<path d="M44.4384 13.6356V6.59266H36.0884V8.35339H42.6688V10.1141H36.0884V15.3963H46.2079V13.6356H44.4384ZM37.8579 13.6356V11.8749H42.6688V13.6356H37.8579Z" fill="white"/>
<path d="M54.558 6.59266V10.1141H49.7471V6.59266H46.208V8.35339H47.9775V11.8749H54.558V13.6356H47.9775V15.3963H56.3276V6.59266H54.558Z" fill="white"/>
<path d="M34.3188 6.59266H25.9688V15.3963H27.7383V11.8749H34.3188V6.59266ZM32.5492 10.1141H27.7383V8.35339H32.5492V10.1141Z" fill="white"/>
</g>
<defs>
<clipPath id="clip0_225_336">
<rect width="67" height="22" fill="white"/>
</clipPath>
</defs>
</svg>
