<svg width="72" height="31" viewBox="0 0 72 31" fill="none" xmlns="http://www.w3.org/2000/svg">
<path d="M38.2673 22.1027C37.632 22.1027 37.0455 22.0003 36.508 21.7955C35.9705 21.5907 35.5307 21.2836 35.1397 20.9252C34.7487 20.5156 34.4555 20.0549 34.2111 19.4406C34.0157 18.8262 33.8691 18.1607 33.8691 17.3416V16.9832C33.8691 16.2154 33.9668 15.601 34.2111 14.9866C34.4555 14.4235 34.7487 13.9627 35.1397 13.5532C35.5307 13.1437 36.0193 12.8877 36.508 12.6829C37.0455 12.4781 37.5831 12.3758 38.1695 12.3758C38.8048 12.3758 39.3425 12.4781 39.8311 12.6317C40.3198 12.7853 40.7107 13.0412 41.0529 13.3484C41.3949 13.6556 41.6393 14.014 41.8347 14.4235C42.0302 14.833 42.1279 15.2938 42.2257 15.7546H39.9777C39.8311 15.345 39.6357 14.9866 39.3913 14.7306C39.1469 14.4747 38.756 14.3723 38.2184 14.3723C37.9253 14.3723 37.6809 14.4235 37.3877 14.5259C37.1433 14.6283 36.8989 14.7819 36.7034 14.9866C36.508 15.1915 36.3614 15.4986 36.2637 15.8058C36.1659 16.113 36.1171 16.5224 36.1171 16.9832V17.3416C36.1171 17.8535 36.1659 18.2631 36.2637 18.6215C36.3614 18.9798 36.508 19.287 36.7034 19.4918C36.8989 19.6966 37.0945 19.9013 37.3877 20.0037C37.632 20.1061 37.9253 20.1573 38.2184 20.1573C38.6582 20.1573 39.0492 20.0549 39.3425 19.7989C39.6357 19.543 39.88 19.2358 39.9777 18.7751H42.2257C42.1768 19.287 42.0302 19.7478 41.8347 20.1573C41.6393 20.5669 41.346 20.9252 41.004 21.2324C40.6619 21.5396 40.2709 21.7444 39.7823 21.8979C39.3913 22.0514 38.8537 22.1027 38.2673 22.1027Z" fill="white"/>
<path d="M46.8194 22.0001C46.2818 22.0001 45.842 21.9489 45.4999 21.8466C45.109 21.7441 44.8158 21.5906 44.5714 21.3346C44.327 21.0786 44.1316 20.7715 44.0338 20.3107C43.9362 19.9012 43.8872 19.3892 43.8872 18.7237V9.611H46.0863V18.4677C46.0863 18.7748 46.0863 19.0308 46.1352 19.1844C46.1841 19.3892 46.233 19.5428 46.3307 19.6452C46.4284 19.7475 46.5261 19.8499 46.7216 19.9012C46.8682 19.9523 47.0638 20.0035 47.3081 20.0035H47.6502C47.748 20.0035 47.8456 20.0035 47.8945 19.9523V21.8977C47.8456 21.8977 47.748 21.8977 47.6502 21.9489C47.5524 21.9489 47.4547 21.9489 47.4058 22.0001H46.8194Z" fill="white"/>
<path d="M50.6311 11.6078C50.2401 11.6078 49.898 11.5054 49.6538 11.2495C49.4094 10.9935 49.3117 10.6863 49.3117 10.3279C49.3117 9.96961 49.4094 9.66245 49.6538 9.40645C49.898 9.15055 50.2401 9.04813 50.6311 9.04813C51.0221 9.04813 51.3642 9.15055 51.6085 9.40645C51.8528 9.66245 51.9506 9.96961 51.9506 10.3279C51.9506 10.6863 51.8528 10.9935 51.6085 11.2495C51.3642 11.5054 51.0221 11.6078 50.6311 11.6078ZM49.5071 12.5806H51.7063V21.898H49.5071V12.5806Z" fill="white"/>
<path d="M57.8149 22.1027C57.1796 22.1027 56.5932 22.0003 56.0556 21.7955C55.5181 21.5907 55.0783 21.2836 54.6873 20.9252C54.2963 20.5156 54.0031 20.0549 53.7587 19.4406C53.5633 18.8262 53.4167 18.1607 53.4167 17.3416V16.9832C53.4167 16.2154 53.5144 15.601 53.7587 14.9866C54.0031 14.4235 54.2963 13.9627 54.6873 13.5532C55.0783 13.1437 55.5669 12.8877 56.0556 12.6829C56.5932 12.4781 57.1307 12.3758 57.7172 12.3758C58.3524 12.3758 58.89 12.4781 59.3787 12.6317C59.8674 12.7853 60.2584 13.0412 60.6005 13.3484C60.9425 13.6556 61.1869 14.014 61.3824 14.4235C61.5778 14.833 61.6756 15.2938 61.7732 15.7546H59.5253C59.3787 15.345 59.1833 14.9866 58.9389 14.7306C58.6945 14.4747 58.3037 14.3723 57.766 14.3723C57.4729 14.3723 57.2285 14.4235 56.9352 14.5259C56.6909 14.6283 56.4465 14.7819 56.251 14.9866C56.0556 15.1915 55.909 15.4986 55.8113 15.8058C55.7135 16.113 55.6646 16.5224 55.6646 16.9832V17.3416C55.6646 17.8535 55.7135 18.2631 55.8113 18.6215C55.909 18.9798 56.0556 19.287 56.251 19.4918C56.4465 19.6966 56.6421 19.9013 56.9352 20.0037C57.1796 20.1061 57.4729 20.1573 57.766 20.1573C58.2058 20.1573 58.5968 20.0549 58.89 19.7989C59.1833 19.543 59.4276 19.2358 59.5253 18.7751H61.7732C61.7244 19.287 61.5778 19.7478 61.3824 20.1573C61.1869 20.5669 60.8936 20.9252 60.5516 21.2324C60.2095 21.5396 59.8185 21.7444 59.3299 21.8979C58.9389 22.0514 58.4013 22.1027 57.8149 22.1027Z" fill="white"/>
<path d="M63.3371 21.8978V9.61104H65.585V16.4199L68.8104 12.5803H71.4005L68.0774 16.5222L71.7426 21.8978H69.1037L66.5625 18.1093L65.585 19.2356V21.8978H63.3371Z" fill="white"/>
<path d="M5.72038 5.46451C2.44615 8.84328 0.833496 12.0686 0.833496 15.2937V15.345C0.833496 18.5703 2.44615 21.8467 5.72038 25.2255C8.94576 28.6044 12.0734 30.2937 15.1522 30.345H15.201C18.2797 30.345 21.4074 28.6555 24.6328 25.2255C31.0834 18.4679 31.1323 12.2734 24.6328 5.41325C21.3585 2.03448 18.231 0.345001 15.1522 0.345001C12.0245 0.345001 8.94576 2.03448 5.72038 5.46451ZM9.972 20.7204C6.40456 16.9832 6.4534 13.6045 9.972 9.91843C13.4906 6.23241 16.716 6.18124 20.2834 9.91843C23.8509 13.6556 23.802 17.0344 20.2834 20.7204C18.5241 22.5634 16.8137 23.485 15.1522 23.485C15.1073 23.4863 15.0622 23.487 15.0174 23.487C13.3542 23.4871 11.7328 22.565 9.972 20.7204Z" fill="white"/>
</svg>
