<svg width="128" height="128" viewBox="0 0 128 128" fill="none" xmlns="http://www.w3.org/2000/svg">
<path opacity="0.2" d="M21.3335 106.667C21.3335 112.558 26.1091 117.333 32.0002 117.333H74.6668C76.0813 117.333 77.4379 116.771 78.4381 115.771L105.105 89.1045C106.105 88.1044 106.667 86.7478 106.667 85.3333V21.3333C106.667 15.4423 101.891 10.6667 96.0002 10.6667H32.0002C26.1091 10.6667 21.3335 15.4423 21.3335 21.3333V106.667ZM93.791 85.3333L74.6668 104.458V85.3333H93.791ZM64.0002 106.667L32.0002 106.667V21.3333H96.0002V74.6666H69.3335C66.388 74.6666 64.0002 77.0545 64.0002 80V106.667ZM42.6668 58.6666C42.6668 61.6122 45.0546 64 48.0002 64H80.0002C82.9457 64 85.3335 61.6122 85.3335 58.6666C85.3335 55.7211 82.9457 53.3333 80.0002 53.3333H48.0002C45.0546 53.3333 42.6668 55.7211 42.6668 58.6666ZM42.6668 37.3333C42.6668 40.2788 45.0546 42.6666 48.0002 42.6666H80.0002C82.9457 42.6666 85.3335 40.2788 85.3335 37.3333C85.3335 34.3878 82.9457 32 80.0002 32H48.0002C45.0546 32 42.6668 34.3878 42.6668 37.3333Z" fill="#3690F7"/>
<path d="M42.667 58.6666C42.667 61.6122 45.0548 64 48.0003 64H80.0003C82.9459 64 85.3337 61.6122 85.3337 58.6666C85.3337 55.7211 82.9459 53.3333 80.0003 53.3333H48.0003C45.0548 53.3333 42.667 55.7211 42.667 58.6666ZM42.667 37.3333C42.667 40.2788 45.0548 42.6666 48.0003 42.6666H80.0003C82.9459 42.6666 85.3337 40.2788 85.3337 37.3333C85.3337 34.3878 82.9459 32 80.0003 32H48.0003C45.0548 32 42.667 34.3878 42.667 37.3333Z" fill="#3690F7"/>
</svg>
