<svg width="130" height="32" viewBox="0 0 130 32" fill="none" xmlns="http://www.w3.org/2000/svg">
<path d="M31.1439 6.06471C31.1205 4.25547 30.5427 2.43491 28.8968 1.41846C27.2947 0.430314 25.1643 0.450133 23.9036 1.95358C23.8015 2.07533 23.5826 2.28202 23.6468 2.46039C23.711 2.63877 24.1079 2.5963 24.2743 2.67841C24.5602 2.81715 24.6741 3.09462 24.6653 3.39191C24.6536 3.73734 24.6507 7.03586 24.6361 11.583C20.5126 11.5604 16.3862 11.5349 12.2627 11.5122C12.1839 10.5184 12.1547 9.40288 12.2276 8.19106C12.2948 7.07267 12.4436 5.95995 12.6683 4.86138C12.7675 4.38005 12.8813 3.90155 13.0097 3.42872C13.1498 2.90775 13.5379 2.26786 13.4971 1.72141C13.4912 1.64779 13.4737 1.57418 13.427 1.51755C13.3161 1.38448 13.1031 1.40713 12.9339 1.4496C11.8833 1.71009 10.8619 2.25371 10.0564 2.95871C9.80839 3.1739 9.14594 3.78547 8.54769 4.82741C6.96016 7.58515 6.83467 11.4924 6.83467 11.4924C6.75296 14.018 6.65082 19.1371 9.4261 24.4515C9.4261 24.4515 11.3697 28.1776 14.1508 29.095C14.6994 29.2762 14.8482 29.1572 14.8949 29.095C15.1109 28.826 14.6469 28.3616 14.5097 28.1549C14.2558 27.7755 14.0399 27.3735 13.8531 26.9573C13.4679 26.0994 13.2111 25.1905 13.0214 24.276C12.4407 21.4899 12.0642 18.6699 12.1459 15.8244H24.6361V26.5184C24.6361 27.2263 24.9338 27.9086 25.6079 28.2427C26.0135 28.4437 26.4746 28.5145 26.927 28.5683C27.7178 28.6646 28.5262 28.7155 29.3083 28.5683C29.7664 28.4834 30.2246 28.322 30.566 28.0134C31.1176 27.5179 31.1264 26.844 31.1264 26.1673C31.1264 20.7963 31.1789 15.4252 31.1701 10.0541C31.1701 8.72052 31.1585 7.38978 31.1439 6.05621V6.06471Z" fill="white"/>
<path d="M14.0311 30.437C8.99127 29.0072 7.02436 23.8258 5.94752 19.3324C5.71405 18.3528 5.48935 17.3873 5.35511 16.3878C4.95239 13.3668 4.9699 10.0456 5.97962 7.1293C5.20919 7.29635 4.86192 7.93907 4.41251 8.46004C2.76952 10.3627 2.64112 12.5853 2.56232 14.7938C2.37555 19.9808 4.32788 23.6701 4.7627 24.4629C5.74324 26.2438 6.81132 27.416 7.1265 27.7529C8.24711 28.9562 9.37357 29.7915 10.2374 30.3464C9.55158 30.1822 8.58272 29.8736 7.54673 29.2535C6.58662 28.6787 5.90083 28.0389 5.45141 27.549C4.80064 26.7421 4.34247 26.0314 4.04481 25.5274C3.24228 24.1797 2.24423 22.5007 1.73645 20.2498C1.59346 19.6184 1.49716 18.9757 1.24035 18.9502C0.869728 18.9134 0.452414 20.1932 0.361948 20.4678C0.070121 21.3597 -0.00283508 22.1836 8.31913e-05 22.6196C0.0205111 24.3185 1.33373 27.6226 4.47087 29.8651C4.47087 29.8651 7.21405 31.8244 11.9066 31.9744C12.0992 31.9801 13.2344 31.9546 14.0778 31.3685C14.4922 31.0797 14.7665 30.638 14.0311 30.4313V30.437Z" fill="white"/>
<path d="M5.98545 7.11231L5.97962 7.1293L5.99713 7.12364L5.98545 7.11231Z" fill="white"/>
<path d="M5.98545 7.11231L5.99713 7.12364L6.05841 7.04719L5.98545 7.11231Z" fill="white"/>
<path d="M61.0243 1.65343C60.4261 0.920109 59.4047 0.891791 58.4212 0.866309C57.4903 0.840827 56.3055 0.809685 55.5643 1.60813C55.1528 2.05265 55.039 2.57645 55.0039 2.89356C54.9864 8.15705 54.9689 13.4177 54.9514 18.6812C54.9602 19.1965 54.9076 20.1677 54.3707 21.2351C53.8045 22.362 53.002 23.0018 52.7977 23.1576C52.7977 23.1576 51.432 24.2052 49.646 24.3439C49.468 24.3581 49.2783 24.3637 49.2783 24.3637C49.2316 24.3637 49.1849 24.3637 49.1382 24.3666C49.0915 24.3666 49.0448 24.3666 48.9981 24.3637C48.9981 24.3637 48.8114 24.3581 48.6304 24.3439C46.8445 24.2023 45.4787 23.1576 45.4787 23.1576C45.2715 22.999 44.4719 22.362 43.9058 21.2351C43.3688 20.1677 43.3163 19.1965 43.325 18.6812C43.3075 13.4177 43.29 8.15705 43.2725 2.89356C43.2375 2.57645 43.1266 2.05265 42.7122 1.60813C41.971 0.809685 40.7861 0.840827 39.8552 0.866309C38.8747 0.891791 37.8503 0.920109 37.2521 1.65343C36.7823 2.22819 36.8202 2.93886 36.8581 3.24748V19.7713C36.8581 21.3087 37.3134 23.3444 38.8338 25.2782C40.541 27.4499 42.9661 28.4182 43.7132 28.6872C45.2277 29.2337 46.719 29.3865 47.1742 29.429C47.9651 29.5055 48.6392 29.5083 49.1382 29.4941C49.6372 29.5083 50.3114 29.5055 51.1022 29.429C51.5575 29.3837 53.0487 29.2308 54.5633 28.6872C55.3104 28.4182 57.7354 27.4499 59.4426 25.2782C60.9601 23.3444 61.4183 21.3087 61.4183 19.7713V3.24748C61.4562 2.93886 61.4942 2.22819 61.0243 1.65343Z" fill="white"/>
<path d="M95.6438 5.43338C95.6642 4.81048 95.6438 3.88746 95.4133 2.77757C95.3899 2.65865 95.3608 2.37552 95.2119 2.04708C95.1331 1.86871 94.9113 1.39587 94.3948 1.0731C94.1176 0.903214 93.8082 0.801286 93.4814 0.804117C93.2538 0.804117 93.0261 0.821105 92.8014 0.821105C92.4862 0.821105 92.1711 0.829597 91.8559 0.832428C91.2431 0.838091 90.6302 0.823935 90.0203 0.846586C89.4717 0.866406 88.9581 1.04761 88.567 1.44683C88.103 1.91967 87.7324 2.59353 87.1195 4.03752C87.0174 4.27536 86.9357 4.47921 86.8803 4.61795C86.6468 5.10777 83.3521 12.0389 82.106 14.0435C82.0155 14.1936 81.8112 14.5135 81.5602 14.5022C81.3064 14.5135 81.105 14.1936 81.0145 14.0435C79.7713 12.0361 76.4737 5.10777 76.2402 4.61795C76.1848 4.47921 76.1031 4.27819 76.0009 4.03752C75.3881 2.59353 75.0175 1.91967 74.5535 1.44683C74.1653 1.04761 73.6517 0.866406 73.1002 0.846586C72.4873 0.826767 71.8745 0.838091 71.2646 0.832428C70.9494 0.832428 70.6342 0.823936 70.3191 0.821105C70.0915 0.821105 69.8638 0.806949 69.6391 0.804117C69.3123 0.804117 69.0058 0.903214 68.7257 1.0731C68.2092 1.39587 67.9874 1.86871 67.9086 2.04708C67.7598 2.37552 67.7306 2.65865 67.7072 2.77757C67.4796 3.89029 67.4562 4.81331 67.4767 5.43338C67.2374 12.5656 66.9981 19.6921 66.7559 26.8243C66.7646 26.9432 66.788 27.1074 66.8551 27.2914C67.2315 28.3362 68.5973 28.8487 69.6479 28.8628C70.7101 28.877 71.9796 28.3872 72.429 27.4415C72.4348 27.4302 72.5165 27.2461 72.5603 27.0423C72.8726 25.5898 73.0535 13.8935 73.1206 8.79986C75.998 14.5192 78.248 18.7945 79.2898 20.6802C79.4999 21.0681 79.9523 21.8467 80.784 22.1129C81.0233 22.1922 81.2888 22.2346 81.5602 22.2375C81.8316 22.2375 82.0972 22.1922 82.3365 22.1129C83.1682 21.8467 83.6176 21.0681 83.8307 20.6802C84.8696 18.7945 87.1225 14.5192 89.9999 8.79986C90.067 13.8963 90.2479 25.5898 90.5602 27.0423C90.604 27.2461 90.6857 27.4302 90.6915 27.4415C91.1409 28.3872 92.4104 28.877 93.4726 28.8628C94.5261 28.8487 95.889 28.3362 96.2654 27.2914C96.3325 27.1074 96.3559 26.9432 96.3646 26.8243C96.1253 19.6921 95.886 12.5656 95.6438 5.43338Z" fill="white"/>
<path d="M128.599 9.60395C127.776 6.95097 126.096 4.61228 123.813 2.94744C121.225 1.06176 118.015 0.0736152 114.79 0C111.565 0.0736152 108.355 1.06176 105.767 2.94744C103.482 4.61228 101.801 6.95097 100.981 9.60395C98.6317 17.2203 102.166 26.9375 110.623 29.0865C111.989 29.4319 113.392 29.5792 114.79 29.5424C116.191 29.5792 117.595 29.4319 118.957 29.0865C127.415 26.9375 130.949 17.2203 128.599 9.60395ZM122.319 18.1065C121.435 21.7137 118.966 25.5898 114.787 25.6323C110.608 25.5898 108.139 21.7137 107.255 18.1065C106.403 14.6324 106.561 10.5411 108.565 7.4408C109.955 5.2918 112.318 4.02052 114.784 4.00354C117.253 4.02052 119.614 5.29463 121.003 7.4408C123.008 10.5411 123.166 14.6324 122.313 18.1065H122.319Z" fill="white"/>
</svg>
