<svg width="86" height="23" viewBox="0 0 86 23" fill="none" xmlns="http://www.w3.org/2000/svg">
<path d="M59.4414 19.1199C57.8102 20.833 55.6858 21.9333 53.3979 22.25C51.11 22.5666 48.7864 22.0821 46.7877 20.8715C44.789 19.6609 43.2268 17.7919 42.3437 15.5544C41.4605 13.317 41.3056 10.8362 41.903 8.49697C42.5005 6.15772 43.8169 4.09079 45.648 2.61683C47.4791 1.14288 49.7225 0.344303 52.0303 0.345002C54.338 0.345701 56.581 1.14563 58.4113 2.6207C60.2416 4.09576 61.5569 6.1635 62.153 8.5031C62.629 10.3668 62.629 12.3292 62.153 14.1929C61.677 16.0566 60.7418 17.7559 59.4414 19.1199Z" fill="white"/>
<path d="M59.4414 19.1199C58.1416 20.4846 56.5224 21.4661 54.7465 21.9656C52.9706 22.4651 51.1006 22.4651 49.3247 21.9656C48.8478 20.1017 48.847 18.1389 49.3225 16.2746C49.798 14.4103 50.733 12.7103 52.0333 11.3456C53.3337 9.98098 54.9536 8.9998 56.7301 8.5008C58.5066 8.0018 60.3769 8.0026 62.153 8.5031C62.6283 10.3669 62.628 12.329 62.152 14.1926C61.6761 16.0561 60.7412 17.7555 59.4414 19.1199Z" fill="white"/>
<path d="M39.7447 15.7037C39.7447 17.5934 38.9823 19.1727 37.4575 20.4415C35.9328 21.7104 33.9005 22.3448 31.3608 22.3448C27.3548 22.3448 24.1264 21.1643 21.6755 18.8034L24.2714 15.3503C25.9692 16.7983 28.116 17.521 30.7119 17.5186C32.8727 17.5186 33.9543 16.9136 33.9567 15.7037C33.9634 15.4127 33.8863 15.1263 33.7355 14.882C33.5847 14.6377 33.3671 14.4468 33.1113 14.3343C32.55 14.0398 31.5467 13.7858 30.1085 13.598C27.6249 13.2421 25.7798 12.5169 24.5731 11.4224C23.3663 10.3278 22.7618 8.80374 22.7595 6.8502C22.7595 4.93102 23.5523 3.36647 25.1378 2.15655C26.7234 0.946632 28.7825 0.3429 31.3152 0.345354C34.1215 0.345354 37.1804 1.72584 39.2325 3.62907L36.8928 6.94223C35.4311 5.62848 33.5545 4.93525 31.6309 4.99851C29.5589 4.99851 28.5218 5.58874 28.5194 6.76921C28.5084 7.0375 28.5771 7.30275 28.716 7.52829C28.8549 7.75383 29.0571 7.92852 29.2947 8.02821C30.3169 8.4159 31.375 8.68982 32.4518 8.84546C34.8722 9.29212 36.694 10.037 37.9171 11.08C39.1402 12.123 39.7494 13.6643 39.7447 15.7037Z" fill="white"/>
<path d="M17.8905 3.55544C16.9342 2.55359 15.8027 1.75486 14.558 1.2031C13.2691 0.628884 11.882 0.337005 10.4818 0.345355C9.07807 0.335497 7.68727 0.627407 6.39512 1.2031C3.87786 2.31331 1.87549 4.41466 0.817569 7.05635C0.268997 8.41238 -0.00916331 9.87192 0.000230219 11.3451C-0.00916331 12.8182 0.268997 14.2777 0.817569 15.6338C1.87549 18.2755 3.87786 20.3768 6.39512 21.487C7.68727 22.0627 9.07807 22.3546 10.4818 22.3448C11.8856 22.3546 13.2764 22.0627 14.5685 21.487C17.0839 20.3738 19.0853 18.2735 20.1461 15.6338C20.6946 14.2777 20.9728 12.8182 20.9634 11.3451C20.9728 9.87192 20.6946 8.41238 20.1461 7.05635C19.6159 5.74789 18.8501 4.55916 17.8905 3.55544ZM15.1894 13.436C14.9369 14.0777 14.5662 14.6606 14.0984 15.1515C13.6307 15.6424 13.0752 16.0314 12.4638 16.2964C11.8321 16.571 11.155 16.7124 10.4713 16.7124C9.78754 16.7124 9.11049 16.571 8.47881 16.2964C7.55041 15.8818 6.75984 15.1879 6.20682 14.3023C5.65381 13.4166 5.36314 12.3789 5.37148 11.3201C5.37982 10.2613 5.68681 9.22885 6.2537 8.35294C6.82059 7.47703 7.62199 6.79695 8.55679 6.39849C9.49159 6.00004 10.5179 5.90107 11.5062 6.11407C12.4946 6.32707 13.4007 6.84249 14.1102 7.59532C14.8197 8.34814 15.3008 9.30463 15.4929 10.3441C15.685 11.3836 15.5794 12.4595 15.1894 13.436Z" fill="white"/>
<path d="M85.1964 7.05635C84.1277 4.40954 82.1126 2.30804 79.5838 1.2031C78.2815 0.636805 76.8857 0.345333 75.476 0.345333C74.0664 0.345333 72.6706 0.636805 71.3683 1.2031C68.8395 2.30804 66.8244 4.40954 65.7557 7.05635C65.2032 8.41134 64.9225 9.87125 64.9313 11.3451V22.3448H70.3265V11.3451C70.325 9.91871 70.8624 8.54991 71.8208 7.5386C72.7927 6.53455 74.1018 5.97179 75.4655 5.97179C76.8293 5.97179 78.1384 6.53455 79.1102 7.5386C80.0687 8.54991 80.6061 9.91871 80.6046 11.3451V22.3448H85.9997V11.3451C86.01 9.8711 85.7293 8.41087 85.1754 7.05635" fill="white"/>
</svg>
