<svg width="128" height="128" viewBox="0 0 128 128" fill="none" xmlns="http://www.w3.org/2000/svg">
<path opacity="0.2" d="M44.2286 22.8954C45.2288 21.8952 46.5853 21.3333 47.9998 21.3333H79.9998C81.4143 21.3333 82.7709 21.8952 83.7711 22.8954L92.8756 32H106.666C112.558 32 117.333 36.7756 117.333 42.6667V96C117.333 101.891 112.558 106.667 106.666 106.667H21.3332C15.4421 106.667 10.6665 101.891 10.6665 96V42.6667C10.6665 36.7756 15.4421 32 21.3332 32H35.124L44.2286 22.8954ZM50.209 32L41.1044 41.1046C40.1042 42.1048 38.7477 42.6667 37.3332 42.6667L21.3332 42.6667V96H106.666V42.6667H90.6665C89.252 42.6667 87.8955 42.1048 86.8953 41.1046L77.7907 32H50.209ZM63.9998 56C58.1088 56 53.3332 60.7756 53.3332 66.6667C53.3332 72.5577 58.1088 77.3333 63.9998 77.3333C69.8909 77.3333 74.6665 72.5577 74.6665 66.6667C74.6665 60.7756 69.8909 56 63.9998 56ZM42.6665 66.6667C42.6665 54.8846 52.2178 45.3333 63.9998 45.3333C75.7819 45.3333 85.3332 54.8846 85.3332 66.6667C85.3332 78.4488 75.7819 88 63.9998 88C52.2178 88 42.6665 78.4488 42.6665 66.6667Z" fill="#3690F7"/>
<path d="M63.9998 56C58.1088 56 53.3332 60.7756 53.3332 66.6667C53.3332 72.5577 58.1088 77.3333 63.9998 77.3333C69.8909 77.3333 74.6665 72.5577 74.6665 66.6667C74.6665 60.7756 69.8909 56 63.9998 56ZM42.6665 66.6667C42.6665 54.8846 52.2178 45.3333 63.9998 45.3333C75.7819 45.3333 85.3332 54.8846 85.3332 66.6667C85.3332 78.4488 75.7819 88 63.9998 88C52.2178 88 42.6665 78.4488 42.6665 66.6667Z" fill="#3690F7"/>
</svg>
