<svg width="98" height="33" viewBox="0 0 98 33" fill="none" xmlns="http://www.w3.org/2000/svg">
<path d="M42.3443 31.8834H34.4866L39.4013 0.906516H47.2586L42.3443 31.8834Z" fill="white"/>
<path d="M70.829 1.66381C69.2792 1.03704 66.8209 0.345005 63.7813 0.345005C56.0216 0.345005 50.5573 4.56291 50.5238 10.5932C50.4593 15.0424 54.4361 17.5136 57.4103 18.9971C60.4504 20.513 61.4838 21.5024 61.4838 22.8536C61.4528 24.9289 59.0273 25.8854 56.765 25.8854C53.6278 25.8854 51.9469 25.3923 49.3924 24.2377L48.3577 23.7428L47.2582 30.6964C49.1011 31.5522 52.4965 32.3117 56.0216 32.345C64.2664 32.345 69.6341 28.1924 69.6977 21.7661C69.729 18.2398 67.6292 15.5378 63.102 13.3298C60.3537 11.9125 58.6706 10.9568 58.6706 9.50657C58.7029 8.1882 60.0942 6.83786 63.1965 6.83786C65.751 6.77172 67.6279 7.39762 69.0497 8.02395L69.7604 8.35289L70.829 1.66381Z" fill="white"/>
<path d="M81.2726 20.9094C81.9197 19.1298 84.4097 12.2423 84.4097 12.2423C84.377 12.3084 85.0555 10.4299 85.4435 9.27662L85.9927 11.9458C85.9927 11.9458 87.4807 19.3606 87.8038 20.9094C86.5758 20.9094 82.8246 20.9094 81.2726 20.9094ZM90.9719 0.906516H84.894C83.0197 0.906516 81.5957 1.46628 80.787 3.47668L69.1154 31.8829H77.3603C77.3603 31.8829 78.7177 28.0597 79.0094 27.2362C79.9139 27.2362 87.9344 27.2362 89.098 27.2362C89.3236 28.3238 90.0356 31.8829 90.0356 31.8829H97.311L90.9719 0.906516Z" fill="white"/>
<path d="M27.9235 0.906516L20.2283 22.0298L19.3874 17.7457C17.9647 12.8025 13.5028 7.43178 8.52363 4.76132L15.5722 31.8505H23.8815L36.2324 0.906516H27.9235Z" fill="white"/>
<path d="M13.0826 0.906516H0.44037L0.311035 1.53241C10.1728 4.10301 16.704 10.2993 19.3874 17.747L16.6391 3.5104C16.1867 1.53197 14.7962 0.971778 13.0826 0.906516Z" fill="white"/>
</svg>
