<svg width="119" height="33" viewBox="0 0 119 33" fill="none" xmlns="http://www.w3.org/2000/svg">
<path d="M0.311035 0.350209H11.3813C12.3876 0.350209 15.4068 0.01693 16.7486 4.68284C17.755 7.68235 19.0969 12.3483 21.1096 19.3471H21.7806C23.7933 12.015 25.4706 7.01579 26.1416 4.68284C27.4834 0.01693 30.838 0.350209 32.1799 0.350209H42.5792V32.345H31.8444V13.3481H31.1735L25.4706 32.345H17.4196L11.7167 13.3481H10.7103V32.345H0.311035M46.9402 0.350209H57.6749V19.3471H58.6813L65.726 3.683C67.0679 0.683488 70.087 0.350209 70.087 0.350209H80.1509V32.345H69.4161V13.3481H68.7452L61.7005 29.0122C60.3586 32.0117 57.004 32.345 57.004 32.345H46.9402M94.5757 22.6799V32.345H84.5119V15.681H117.387C116.045 19.6804 111.349 22.6799 105.981 22.6799" fill="white"/>
<path d="M118.058 13.6815C119.4 7.68247 115.374 0.350327 106.652 0.350327H83.841C84.512 7.34919 90.5503 13.6815 96.924 13.6815" fill="white"/>
</svg>
