<svg width="68" height="23" viewBox="0 0 68 23" fill="none" xmlns="http://www.w3.org/2000/svg">
<g clip-path="url(#clip0_109_178)">
<path opacity="0.5" d="M4.27686 0.346628H59.3821C60.0169 0.346628 60.577 0.608412 60.8946 1.11247L66.4803 10.1725C66.9098 10.8823 66.836 11.7408 66.2186 12.4513L58.3545 21.5114C57.9251 21.9968 57.365 22.2959 56.7284 22.2959H1.78926C0.687734 22.2959 -0.116263 21.4366 0.0138073 20.3529L2.08924 2.28806C2.22094 1.18646 3.17289 0.345001 4.27524 0.345001H4.27605L4.27686 0.346628Z" fill="white"/>
<path d="M32.6713 6.46613L29.8114 12.9766L28.3254 6.46613H25.3898L28.005 15.8928L26.4816 18.979H29.3789L35.5312 6.46613H32.6705H32.6713ZM4.97607 18.979H7.61002L8.04251 15.4237C8.45629 15.7432 9.22776 16.1009 10.2057 16.1009C13.2543 16.1009 15.1167 13.4099 15.1167 10.4758C15.1167 7.97341 13.9314 6.22386 11.7113 6.22386C10.6569 6.22386 9.69764 6.56206 8.96435 7.16527L9.05785 6.46939H6.49953L4.97607 18.9822V18.9798V18.979ZM8.26851 13.5782L8.8522 8.94984C9.41636 8.49861 10.0561 8.31001 10.6203 8.32871C11.7487 8.34658 12.3698 9.25064 12.3698 10.662C12.3698 12.4872 11.4105 14.0489 9.79197 14.0489C9.28386 14.0489 8.701 13.8799 8.26851 13.5782ZM15.6248 13.3343C15.6053 14.8579 16.8483 16.1009 18.7473 16.1009C20.0837 16.1009 21.0609 15.5367 21.6251 14.9156L21.5121 15.8749H24.0704L24.6915 10.7766C24.9931 8.25551 24.1647 6.20433 20.9284 6.20433C19.6114 6.20433 18.0124 6.50596 17.1466 7.07017L16.8824 9.17745C17.5791 8.80024 18.9335 8.34172 20.1748 8.34172C21.6609 8.34172 22.1885 9.08317 22.1315 9.87421H20.5512C18.2555 9.87421 15.6403 10.7579 15.6216 13.336H15.624L15.6248 13.3343ZM18.2782 13.1262C18.2782 12.11 19.4635 11.7335 20.6853 11.7335H21.9267L21.7381 13.2571C21.2113 13.6709 20.2708 14.1034 19.4798 14.1034C18.7652 14.1034 18.2758 13.7083 18.2758 13.1246H18.2766L18.2782 13.1262ZM50.5787 11.5644C50.5416 13.9164 52.2534 16.0985 55.7523 16.0985C56.9935 16.0985 58.0481 15.8538 58.9877 15.2701L59.1766 13.0498C58.4056 13.5205 57.2383 13.84 56.2231 13.84C54.8866 13.84 53.6825 13.2563 53.3452 11.9018H59.8554C59.9489 11.6571 60.0245 11.0734 60.0245 10.5091C60.0245 8.02625 58.6504 6.21895 55.828 6.21895C53.0056 6.21895 50.6163 7.89375 50.5787 11.562V11.5636V11.5644ZM53.3631 10.3035C53.6271 9.06199 54.5286 8.32706 55.6391 8.32706C56.7497 8.32706 57.3515 8.94819 57.3515 9.94575C57.3515 10.0587 57.3515 10.1905 57.3336 10.3035H53.364H53.3631ZM37.6758 15.8733L38.5416 8.98724C39.1253 8.59211 39.7829 8.27261 40.3487 8.27261C41.082 8.27261 41.4397 8.81894 41.3275 9.75875L40.5747 15.8741H43.2282L44.0566 9.19454L44.0744 9.00594C44.6581 8.61081 45.3353 8.27261 45.8996 8.27261C46.6329 8.27261 46.9904 8.81894 46.8781 9.75875L46.1255 15.8741H48.7788L49.6075 9.19454C49.8334 7.33197 48.8732 6.20351 47.1618 6.20351C45.9766 6.20351 44.7158 6.88074 43.8696 7.50187C43.5119 6.67344 42.7217 6.20351 41.6112 6.20351C40.5007 6.20351 39.4285 6.74984 38.5822 7.31409L38.6952 6.46774H36.2125L35.0272 15.8758H37.6806H37.6774L37.6758 15.8733Z" fill="white"/>
</g>
<defs>
<clipPath id="clip0_109_178">
<rect width="67.8333" height="22" fill="white" transform="translate(0 0.345001)"/>
</clipPath>
</defs>
</svg>
