<svg width="128" height="128" viewBox="0 0 128 128" fill="none" xmlns="http://www.w3.org/2000/svg">
<path opacity="0.2" fill-rule="evenodd" clip-rule="evenodd" d="M36.0466 26.6667H75.9538C80.2469 26.6666 83.7902 26.6665 86.6766 26.9024C89.6744 27.1473 92.4302 27.673 95.0186 28.9919C99.0328 31.0372 102.296 34.3007 104.342 38.3149C105.661 40.9033 106.186 43.6591 106.431 46.6569C106.667 49.5433 106.667 53.0865 106.667 57.3796V70.6204C106.667 74.9135 106.667 78.4567 106.431 81.3431C106.186 84.3409 105.661 87.0967 104.342 89.6851C102.296 93.6992 99.0328 96.9628 95.0186 99.0081C92.4302 100.327 89.6744 100.853 86.6766 101.098C83.7902 101.333 80.2469 101.333 75.9536 101.333H36.0467C31.7535 101.333 28.2102 101.333 25.3238 101.098C22.3259 100.853 19.5702 100.327 16.9817 99.0081C12.9676 96.9628 9.70399 93.6993 7.6587 89.6851C6.33981 87.0967 5.81413 84.3409 5.5692 81.3431C5.33337 78.4567 5.33343 74.9134 5.3335 70.6203V57.3797C5.33343 53.0866 5.33337 49.5433 5.5692 46.6569C5.81413 43.6591 6.33981 40.9033 7.6587 38.3149C9.70399 34.3007 12.9676 31.0372 16.9817 28.9919C19.5702 27.673 22.3259 27.1473 25.3238 26.9024C28.2101 26.6665 31.7534 26.6666 36.0466 26.6667ZM26.1924 37.5336C23.8542 37.7246 22.6584 38.0709 21.8243 38.4959C19.8172 39.5186 18.1854 41.1504 17.1628 43.1574C16.7378 43.9916 16.3915 45.1873 16.2004 47.5255C16.0043 49.926 16.0002 53.0316 16.0002 57.6V70.4C16.0002 74.9684 16.0043 78.074 16.2004 80.4745C16.3915 82.8127 16.7378 84.0084 17.1628 84.8426C18.1854 86.8496 19.8172 88.4814 21.8243 89.5041C22.6584 89.9291 23.8542 90.2753 26.1924 90.4664C28.5928 90.6625 31.6984 90.6667 36.2668 90.6667H75.7335C80.3019 90.6667 83.4075 90.6625 85.808 90.4664C88.1462 90.2753 89.3419 89.9291 90.1761 89.5041C92.1831 88.4814 93.8149 86.8496 94.8376 84.8426C95.2626 84.0084 95.6088 82.8127 95.7999 80.4745C95.996 78.074 96.0002 74.9684 96.0002 70.4V57.6C96.0002 53.0316 95.996 49.926 95.7999 47.5255C95.6088 45.1873 95.2626 43.9916 94.8376 43.1574C93.8149 41.1504 92.1831 39.5186 90.1761 38.4959C89.3419 38.0709 88.1462 37.7246 85.808 37.5336C83.4075 37.3375 80.3019 37.3333 75.7335 37.3333H36.2668C31.6984 37.3333 28.5928 37.3375 26.1924 37.5336ZM34.6668 48C37.6124 48 40.0002 50.3878 40.0002 53.3333V74.6667C40.0002 77.6122 37.6124 80 34.6668 80C31.7213 80 29.3335 77.6122 29.3335 74.6667V53.3333C29.3335 50.3878 31.7213 48 34.6668 48ZM56.0002 48C58.9457 48 61.3335 50.3878 61.3335 53.3333V74.6667C61.3335 77.6122 58.9457 80 56.0002 80C53.0546 80 50.6668 77.6122 50.6668 74.6667V53.3333C50.6668 50.3878 53.0546 48 56.0002 48ZM77.3335 48C80.279 48 82.6668 50.3878 82.6668 53.3333V74.6667C82.6668 77.6122 80.279 80 77.3335 80C74.388 80 72.0002 77.6122 72.0002 74.6667V53.3333C72.0002 50.3878 74.388 48 77.3335 48ZM117.333 53.3333C120.279 53.3333 122.667 55.7211 122.667 58.6667V69.3333C122.667 72.2788 120.279 74.6667 117.333 74.6667C114.388 74.6667 112 72.2788 112 69.3333V58.6667C112 55.7211 114.388 53.3333 117.333 53.3333Z" fill="#3690F7"/>
<path fill-rule="evenodd" clip-rule="evenodd" d="M34.6668 48C37.6123 48 40.0002 50.3878 40.0002 53.3333V74.6667C40.0002 77.6122 37.6123 80 34.6668 80C31.7213 80 29.3335 77.6122 29.3335 74.6667V53.3333C29.3335 50.3878 31.7213 48 34.6668 48ZM56.0002 48C58.9457 48 61.3335 50.3878 61.3335 53.3333V74.6667C61.3335 77.6122 58.9457 80 56.0002 80C53.0546 80 50.6668 77.6122 50.6668 74.6667V53.3333C50.6668 50.3878 53.0546 48 56.0002 48ZM77.3335 48C80.279 48 82.6668 50.3878 82.6668 53.3333V74.6667C82.6668 77.6122 80.279 80 77.3335 80C74.388 80 72.0002 77.6122 72.0002 74.6667V53.3333C72.0002 50.3878 74.388 48 77.3335 48Z" fill="#3690F7"/>
</svg>
