<svg width="89" height="23" viewBox="0 0 89 23" fill="none" xmlns="http://www.w3.org/2000/svg">
<path d="M7.41665 20.2159C11.7886 20.2159 14.8333 16.6711 14.8333 12.0546C14.8333 7.43816 11.7886 3.89337 7.41665 3.89337C3.04473 3.89337 0 7.43816 0 12.0546C0 16.6711 3.04473 20.2159 7.41665 20.2159Z" fill="white"/>
<path d="M29.6666 10.3634C29.6666 6.71695 27.4429 3.89337 24.2064 3.89337C22.6566 3.89337 21.3688 4.48591 20.4572 5.5175V5.0137C20.4572 4.46193 20.1609 4.17724 19.6366 4.17724H17.6765C17.1523 4.17724 16.856 4.46193 16.856 5.0137V21.4793C16.856 22.0311 17.1523 22.3449 17.6765 22.3449H19.6366C20.1609 22.3449 20.4572 22.0311 20.4572 21.4793V15.2093C21.3688 16.2409 22.6566 16.9514 24.2064 16.9514C27.4429 16.9514 29.6666 14.0098 29.6666 10.3634ZM26.1209 10.3634C26.1209 12.1386 24.8788 13.4821 23.2948 13.4821C21.7107 13.4821 20.4572 12.1386 20.4572 10.3634C20.4572 8.60014 21.7107 7.24474 23.2948 7.24474C24.8788 7.24474 26.1209 8.60014 26.1209 10.3634Z" fill="white"/>
<path d="M30.3409 10.3634C30.3409 14.0098 32.6204 16.9514 35.8681 16.9514C37.4182 16.9514 38.6945 16.2409 39.6176 15.2093V15.7131C39.6176 16.2649 39.9139 16.6675 40.4381 16.6675H42.3311C42.8553 16.6675 43.1516 16.2649 43.1516 15.7131V5.0137C43.1516 4.46193 42.8553 4.17724 42.3311 4.17724H40.4381C39.9139 4.17724 39.6176 4.46193 39.6176 5.0137V5.5175C38.6945 4.48591 37.4182 3.89337 35.8681 3.89337C32.6204 3.89337 30.3409 6.71695 30.3409 10.3634ZM33.9536 10.3634C33.9536 8.60014 35.1844 7.24474 36.7686 7.24474C38.3642 7.24474 39.6176 8.60014 39.6176 10.3634C39.6176 12.1386 38.3642 13.4821 36.7686 13.4821C35.1844 13.4821 33.9536 12.1386 33.9536 10.3634Z" fill="white"/>
<path d="M46.6654 22.345H48.7849C49.2521 22.345 49.5599 22.345 49.7194 21.6474L55.2188 5.14573C55.266 5.00553 55.2879 4.90182 55.2879 4.76322C55.2879 4.37903 55.0509 4.17735 54.5854 4.17735H52.4885C52.0101 4.17735 51.7023 4.39007 51.5655 4.86985L49.5599 11.6829L47.5884 4.86985C47.4516 4.39007 47.1438 4.17735 46.6654 4.17735H44.5685C44.0972 4.17735 43.8258 4.38443 43.8258 4.77688C43.8258 4.90182 43.8508 5.01111 43.896 5.14573L47.7819 16.6676L46.0272 21.3355C45.7993 21.9472 46.0498 22.345 46.6654 22.345Z" fill="white"/>
<path d="M62.9581 3.89337C61.6133 3.89337 60.4179 4.43794 59.6203 5.45749V5.0137C59.6203 4.46193 59.3239 4.17724 58.7997 4.17724H56.7824C56.2582 4.17724 55.9622 4.46193 55.9622 5.0137V15.7131C55.9622 16.2649 56.2582 16.6675 56.7824 16.6675H58.7997C59.3239 16.6675 59.6203 16.2649 59.6203 15.7131V9.8596C59.6203 8.15635 60.6788 7.24474 61.8642 7.24474C62.9241 7.24474 63.7672 8.27628 63.7672 9.39182V15.7131C63.7672 16.2649 64.0635 16.6675 64.5878 16.6675H66.6047C67.129 16.6675 67.4243 16.2649 67.4243 15.7131V8.78008C67.4243 5.84136 65.5452 3.89337 62.9581 3.89337Z" fill="white"/>
<path d="M86.4139 12.0787V7.48468H88.1572C88.6811 7.48468 89 7.17281 89 6.62104V5.01373C89 4.46196 88.6811 4.17728 88.1572 4.17728H86.4139V1.14319C86.4139 0.657288 86.1446 0.349332 85.702 0.345047C85.6457 0.344501 85.5863 0.348876 85.5246 0.358356L83.4847 0.663395C82.9834 0.747358 82.7326 1.05922 82.7326 1.587V4.17728H81.7856C81.2614 4.17728 80.9091 4.46196 80.9091 5.01373V6.62104C80.9091 7.17281 81.2614 7.48468 81.7856 7.48468H82.7326V12.4745C82.7326 15.2573 84.2823 16.9514 86.801 16.9514C87.4162 16.9514 88.0089 16.8475 88.5102 16.6675C88.9434 16.5116 89 16.073 89 15.5932V14.3577C89 13.782 88.818 13.5061 88.2711 13.5301H87.9178C86.835 13.5301 86.4139 13.0743 86.4139 12.0787Z" fill="white"/>
<path d="M71.8352 11.431H79.9888C80.4789 11.431 80.8228 11.1791 80.8683 10.6633C80.8912 10.4954 80.9091 10.3154 80.9091 10.1595C80.9091 6.66901 78.2512 3.89337 74.6387 3.89337C70.9576 3.89337 68.0985 6.71699 68.0985 10.3634C68.0985 14.0098 70.8895 16.9514 74.969 16.9514C77.0659 16.9514 78.6834 16.061 79.8913 14.8735C80.2787 14.4897 80.2561 14.0578 79.9139 13.65L79.4241 13.0742C79.0822 12.6664 78.706 12.6544 78.2732 12.9663C77.3613 13.638 76.2798 13.9619 75.0149 13.9619C73.2598 13.9619 72.0975 13.0023 71.8352 11.431ZM74.5932 6.76496C75.9494 6.76496 76.9398 7.6286 77.2247 8.996H71.8921C72.2454 7.60461 73.2598 6.76496 74.5932 6.76496Z" fill="white"/>
</svg>
