<svg width="24" height="24" viewBox="0 0 24 24" fill="none" xmlns="http://www.w3.org/2000/svg">
<g opacity="0.2">
<path d="M12.0071 4.31704C13.2055 4.31704 14.177 3.35064 14.177 2.15852C14.177 0.966403 13.2055 0 12.0071 0C10.8088 0 9.83727 0.966403 9.83727 2.15852C9.83727 3.35064 10.8088 4.31704 12.0071 4.31704Z" fill="#03005B"/>
<path d="M5.0189 7.17748C6.21729 7.17748 7.18878 6.21108 7.18878 5.01896C7.18878 3.82685 6.21729 2.86044 5.0189 2.86044C3.82051 2.86044 2.84902 3.82685 2.84902 5.01896C2.84902 6.21108 3.82051 7.17748 5.0189 7.17748Z" fill="#03005B"/>
<path d="M2.16988 14.1504C3.36827 14.1504 4.33976 13.184 4.33976 11.9919C4.33976 10.7998 3.36827 9.83338 2.16988 9.83338C0.971488 9.83338 0 10.7998 0 11.9919C0 13.184 0.971488 14.1504 2.16988 14.1504Z" fill="#03005B"/>
<path d="M5.0179 21.102C6.2163 21.102 7.18778 20.1356 7.18778 18.9435C7.18778 17.7514 6.2163 16.785 5.0179 16.785C3.81951 16.785 2.84803 17.7514 2.84803 18.9435C2.84803 20.1356 3.81951 21.102 5.0179 21.102Z" fill="#03005B"/>
<path d="M12.0071 24C13.2055 24 14.177 23.0336 14.177 21.8415C14.177 20.6494 13.2055 19.683 12.0071 19.683C10.8088 19.683 9.83727 20.6494 9.83727 21.8415C9.83727 23.0336 10.8088 24 12.0071 24Z" fill="#03005B"/>
<path d="M18.9882 7.19875C20.1866 7.19875 21.1581 6.23235 21.1581 5.04023C21.1581 3.84811 20.1866 2.88171 18.9882 2.88171C17.7899 2.88171 16.8184 3.84811 16.8184 5.04023C16.8184 6.23235 17.7899 7.19875 18.9882 7.19875Z" fill="#03005B"/>
<path d="M21.8301 14.1504C23.0285 14.1504 24 13.184 24 11.9919C24 10.7998 23.0285 9.83338 21.8301 9.83338C20.6317 9.83338 19.6602 10.7998 19.6602 11.9919C19.6602 13.184 20.6317 14.1504 21.8301 14.1504Z" fill="#03005B"/>
<path d="M18.9882 21.102C20.1866 21.102 21.1581 20.1356 21.1581 18.9435C21.1581 17.7514 20.1866 16.785 18.9882 16.785C17.7899 16.785 16.8184 17.7514 16.8184 18.9435C16.8184 20.1356 17.7899 21.102 18.9882 21.102Z" fill="#03005B"/>
</g>
</svg>
