<svg width="36" height="36" viewBox="0 0 36 36" fill="none" xmlns="http://www.w3.org/2000/svg">
<path d="M18 33C24.1492 33 29.4277 29.2957 31.743 24H4.25696C6.57221 29.2957 11.8507 33 18 33Z" fill="url(#paint0_linear)"/>
<path d="M18 3C11.8507 3 6.57221 6.70425 4.25696 12H31.7437C29.4277 6.70425 24.1492 3 18 3Z" fill="url(#paint1_linear)"/>
<path d="M31.743 12H4.257C3.453 13.8382 3 15.8655 3 18C3 20.1345 3.453 22.1617 4.257 24H31.7438C32.547 22.1617 33 20.1345 33 18C33 15.8655 32.547 13.8382 31.743 12Z" fill="url(#paint2_linear)"/>
<path d="M31.743 12H4.257C3.453 13.8382 3 15.8655 3 18C3 20.1345 3.453 22.1617 4.257 24H31.7438C32.547 22.1617 33 20.1345 33 18C33 15.8655 32.547 13.8382 31.743 12Z" fill="url(#paint3_linear)"/>
<defs>
<linearGradient id="paint0_linear" x1="4.25471" y1="10.986" x2="25.2097" y2="31.941" gradientUnits="userSpaceOnUse">
<stop stop-color="#F44F5A"/>
<stop offset="0.443" stop-color="#EE3D4A"/>
<stop offset="1" stop-color="#E52030"/>
</linearGradient>
<linearGradient id="paint1_linear" x1="10.893" y1="4.1625" x2="31.8397" y2="25.1093" gradientUnits="userSpaceOnUse">
<stop stop-color="#DFE9F2"/>
<stop offset="0.998" stop-color="#9EA7B0"/>
</linearGradient>
<linearGradient id="paint2_linear" x1="7.78275" y1="7.78275" x2="28.9327" y2="28.9328" gradientUnits="userSpaceOnUse">
<stop stop-color="#DFE9F2"/>
<stop offset="0.998" stop-color="#9EA7B0"/>
</linearGradient>
<linearGradient id="paint3_linear" x1="7.50675" y1="7.50675" x2="28.6432" y2="28.6432" gradientUnits="userSpaceOnUse">
<stop stop-color="#4AB7FF"/>
<stop offset="1" stop-color="#007AD9"/>
</linearGradient>
</defs>
</svg>
