<svg width="36" height="36" viewBox="0 0 36 36" fill="none" xmlns="http://www.w3.org/2000/svg">
<path d="M31.7437 24H4.25623C6.57223 29.2957 11.8507 33 18 33C24.1492 33 29.4277 29.2957 31.7437 24Z" fill="#00C853"/>
<path d="M18 3C11.8507 3 6.57223 6.70425 4.25623 12H31.743C29.4277 6.70425 24.1492 3 18 3Z" fill="#00ACC1"/>
<path d="M32.0369 23.25H3.96295C4.05745 23.502 4.14895 23.7548 4.2562 24H31.743C31.851 23.7548 31.9424 23.502 32.0369 23.25Z" fill="#D50000"/>
<path d="M31.7437 12H4.2562C4.14895 12.2452 4.05745 12.498 3.96295 12.75H32.0362C31.9425 12.498 31.851 12.2452 31.7437 12Z" fill="#D50000"/>
<path d="M33 18C33 16.1497 32.649 14.3865 32.037 12.75H3.963C3.351 14.3865 3 16.1497 3 18C3 19.8503 3.351 21.6135 3.963 23.25H32.0363C32.649 21.6135 33 19.8503 33 18Z" fill="#ECEFF1"/>
<path d="M14.25 8.625C14.25 10.0755 13.0755 11.25 11.625 11.25C10.1745 11.25 9 10.0755 9 8.625C9 7.1745 10.1745 6 11.625 6C13.0755 6 14.25 7.1745 14.25 8.625Z" fill="white"/>
<path d="M15 8.625C15 10.0755 13.8255 11.25 12.375 11.25C10.9245 11.25 9.75 10.0755 9.75 8.625C9.75 7.1745 10.9245 6 12.375 6C13.8255 6 15 7.1745 15 8.625Z" fill="#00ACC1"/>
<path d="M20.0182 6.46275L20.25 6.28725H19.9628L19.875 6L19.7872 6.28725H19.5L19.7318 6.46275L19.6432 6.75L19.875 6.5745L20.1068 6.75L20.0182 6.46275Z" fill="white"/>
<path d="M22.2682 6.46275L22.5 6.28725H22.2128L22.125 6L22.0372 6.28725H21.75L21.9818 6.46275L21.8932 6.75L22.125 6.5745L22.3568 6.75L22.2682 6.46275Z" fill="white"/>
<path d="M17.7682 6.46275L18 6.28725H17.7128L17.625 6L17.5372 6.28725H17.25L17.4818 6.46275L17.3932 6.75L17.625 6.5745L17.8568 6.75L17.7682 6.46275Z" fill="white"/>
<path d="M20.0182 8.71275L20.25 8.53725H19.9628L19.875 8.25L19.7872 8.53725H19.5L19.7318 8.71275L19.6432 9L19.875 8.8245L20.1068 9L20.0182 8.71275Z" fill="white"/>
<path d="M22.2682 8.71275L22.5 8.53725H22.2128L22.125 8.25L22.0372 8.53725H21.75L21.9818 8.71275L21.8932 9L22.125 8.8245L22.3568 9L22.2682 8.71275Z" fill="white"/>
<path d="M17.7682 8.71275L18 8.53725H17.7128L17.625 8.25L17.5372 8.53725H17.25L17.4818 8.71275L17.3932 9L17.625 8.8245L17.8568 9L17.7682 8.71275Z" fill="white"/>
<path d="M20.0182 10.9627L20.25 10.7873H19.9628L19.875 10.5L19.7872 10.7873H19.5L19.7318 10.9627L19.6432 11.25L19.875 11.0745L20.1068 11.25L20.0182 10.9627Z" fill="white"/>
<path d="M22.2682 10.9627L22.5 10.7873H22.2128L22.125 10.5L22.0372 10.7873H21.75L21.9818 10.9627L21.8932 11.25L22.125 11.0745L22.3568 11.25L22.2682 10.9627Z" fill="white"/>
<path d="M17.7682 10.9627L18 10.7873H17.7128L17.625 10.5L17.5372 10.7873H17.25L17.4818 10.9627L17.3932 11.25L17.625 11.0745L17.8568 11.25L17.7682 10.9627Z" fill="white"/>
<path d="M15.5182 8.71275L15.75 8.53725H15.4628L15.375 8.25L15.2872 8.53725H15L15.2318 8.71275L15.1432 9L15.375 8.8245L15.6068 9L15.5182 8.71275Z" fill="white"/>
<path d="M15.5182 10.9627L15.75 10.7873H15.4628L15.375 10.5L15.2872 10.7873H15L15.2318 10.9627L15.1432 11.25L15.375 11.0745L15.6068 11.25L15.5182 10.9627Z" fill="white"/>
<path d="M13.2682 10.9627L13.5 10.7873H13.2128L13.125 10.5L13.0372 10.7873H12.75L12.9818 10.9627L12.8932 11.25L13.125 11.0745L13.3568 11.25L13.2682 10.9627Z" fill="white"/>
</svg>
